<svg width="1920" height="103" viewBox="0 0 1920 103" fill="none" xmlns="http://www.w3.org/2000/svg">
<foreignObject x="-300" y="-300" width="2520" height="703"><div xmlns="http://www.w3.org/1999/xhtml" style="backdrop-filter:blur(150px);clip-path:url(#bgblur_0_1385_269_clip_path);height:100%;width:100%"></div></foreignObject><path data-figma-bg-blur-radius="300" d="M1100.08 33.8185C1104.87 47.2292 1117.3 56.4011 1131.53 57.0143L1920 91V103H0V91L788.468 57.0143C802.695 56.4011 815.132 47.2292 819.922 33.8185L824.889 19.9099C829.154 7.97013 840.463 0 853.142 0H1066.86C1079.54 0 1090.85 7.97012 1095.11 19.9099L1100.08 33.8185Z" fill="black" fill-opacity="0.4"/>
<path d="M895.996 18C888.269 18 882 24.2698 882 32C882 39.7302 888.269 46 895.996 46C903.722 46 910 39.7302 910 32C910 24.2698 903.722 18 895.996 18ZM895.996 43.534C891.929 43.534 888.365 41.4179 886.31 38.2436L893.637 35.2355C894.27 35.6902 895.05 35.97 895.892 35.97C896.733 35.97 897.478 35.7077 898.103 35.2705L905.621 38.3573C903.557 41.4791 900.019 43.5428 895.996 43.5428V43.534ZM907.234 34.6059L899.707 31.5191C899.421 29.6565 897.834 28.2311 895.892 28.2311C893.949 28.2311 892.388 29.639 892.085 31.4753L884.731 34.4922C884.558 33.6877 884.454 32.857 884.454 32C884.454 25.6252 889.622 20.4572 895.987 20.4572C902.352 20.4572 907.529 25.6252 907.529 32C907.529 32.9007 907.407 33.7664 907.225 34.6146L907.234 34.6059Z" fill="#4FACF2"/>
<path d="M926.878 25.054H930.856L935.446 38.5H932.458L931.288 34.774H926.446L925.276 38.5H922.288L926.878 25.054ZM930.604 32.596L928.876 27.07L927.13 32.596H930.604ZM943.019 38.752C941.855 38.752 940.847 38.53 939.995 38.086C939.155 37.63 938.513 37.012 938.069 36.232C937.625 35.44 937.403 34.546 937.403 33.55V25.054H940.193V33.64C940.193 34.432 940.439 35.086 940.931 35.602C941.423 36.118 942.119 36.376 943.019 36.376C943.919 36.376 944.609 36.124 945.089 35.62C945.581 35.104 945.827 34.444 945.827 33.64V25.054H948.635V33.55C948.635 34.546 948.413 35.44 947.969 36.232C947.525 37.012 946.877 37.63 946.025 38.086C945.185 38.53 944.183 38.752 943.019 38.752ZM955.035 27.304H950.769V25.054H962.091V27.304H957.843V38.5H955.035V27.304ZM969.767 38.752C968.543 38.752 967.391 38.47 966.311 37.906C965.243 37.33 964.379 36.514 963.719 35.458C963.071 34.402 962.747 33.184 962.747 31.804V31.75C962.747 30.37 963.071 29.152 963.719 28.096C964.379 27.04 965.243 26.23 966.311 25.666C967.391 25.09 968.543 24.802 969.767 24.802C971.003 24.802 972.155 25.09 973.223 25.666C974.303 26.23 975.167 27.04 975.815 28.096C976.475 29.152 976.805 30.37 976.805 31.75V31.804C976.805 33.184 976.475 34.402 975.815 35.458C975.167 36.514 974.303 37.33 973.223 37.906C972.155 38.47 971.003 38.752 969.767 38.752ZM965.573 31.786C965.573 32.722 965.771 33.538 966.167 34.234C966.563 34.918 967.079 35.44 967.715 35.8C968.363 36.16 969.047 36.34 969.767 36.34C970.499 36.34 971.189 36.16 971.837 35.8C972.485 35.44 973.007 34.918 973.403 34.234C973.799 33.538 973.997 32.722 973.997 31.786V31.75C973.997 30.814 973.799 30.004 973.403 29.32C973.007 28.636 972.485 28.114 971.837 27.754C971.189 27.394 970.499 27.214 969.767 27.214C969.035 27.214 968.351 27.394 967.715 27.754C967.079 28.114 966.563 28.636 966.167 29.32C965.771 30.004 965.573 30.814 965.573 31.75V31.786ZM983.088 25.054H988.038C989.526 25.054 990.72 25.444 991.62 26.224C992.532 26.992 992.988 28.144 992.988 29.68C992.988 31.252 992.55 32.446 991.674 33.262C990.798 34.078 989.55 34.486 987.93 34.486H985.878V38.5H983.088V25.054ZM987.66 32.326C988.428 32.326 989.034 32.116 989.478 31.696C989.922 31.276 990.144 30.646 990.144 29.806C990.144 28.966 989.922 28.336 989.478 27.916C989.034 27.496 988.428 27.286 987.66 27.286H985.878V32.326H987.66ZM995.147 25.054H997.937V38.5H995.147V25.054ZM1001.28 25.054H1004.07V36.214H1010.03V38.5H1001.28V25.054ZM1018.3 38.752C1017.08 38.752 1015.92 38.47 1014.84 37.906C1013.78 37.33 1012.91 36.514 1012.25 35.458C1011.6 34.402 1011.28 33.184 1011.28 31.804V31.75C1011.28 30.37 1011.6 29.152 1012.25 28.096C1012.91 27.04 1013.78 26.23 1014.84 25.666C1015.92 25.09 1017.08 24.802 1018.3 24.802C1019.54 24.802 1020.69 25.09 1021.76 25.666C1022.84 26.23 1023.7 27.04 1024.35 28.096C1025.01 29.152 1025.34 30.37 1025.34 31.75V31.804C1025.34 33.184 1025.01 34.402 1024.35 35.458C1023.7 36.514 1022.84 37.33 1021.76 37.906C1020.69 38.47 1019.54 38.752 1018.3 38.752ZM1014.11 31.786C1014.11 32.722 1014.3 33.538 1014.7 34.234C1015.1 34.918 1015.61 35.44 1016.25 35.8C1016.9 36.16 1017.58 36.34 1018.3 36.34C1019.03 36.34 1019.72 36.16 1020.37 35.8C1021.02 35.44 1021.54 34.918 1021.94 34.234C1022.33 33.538 1022.53 32.722 1022.53 31.786V31.75C1022.53 30.814 1022.33 30.004 1021.94 29.32C1021.54 28.636 1021.02 28.114 1020.37 27.754C1019.72 27.394 1019.03 27.214 1018.3 27.214C1017.57 27.214 1016.88 27.394 1016.25 27.754C1015.61 28.114 1015.1 28.636 1014.7 29.32C1014.3 30.004 1014.11 30.814 1014.11 31.75V31.786ZM1030.25 27.304H1025.99V25.054H1037.31V27.304H1033.06V38.5H1030.25V27.304Z" fill="#4FACF2"/>
<defs>
<clipPath id="bgblur_0_1385_269_clip_path" transform="translate(300 300)"><path d="M1100.08 33.8185C1104.87 47.2292 1117.3 56.4011 1131.53 57.0143L1920 91V103H0V91L788.468 57.0143C802.695 56.4011 815.132 47.2292 819.922 33.8185L824.889 19.9099C829.154 7.97013 840.463 0 853.142 0H1066.86C1079.54 0 1090.85 7.97012 1095.11 19.9099L1100.08 33.8185Z"/>
</clipPath></defs>
</svg>
