<svg width="34" height="34" viewBox="0 0 34 34" fill="none" xmlns="http://www.w3.org/2000/svg">
<g clip-path="url(#clip0_1703_269)">
<g filter="url(#filter0_d_1703_269)">
<path d="M16.9987 19.8333C15.8181 19.8333 14.8147 19.4201 13.9883 18.5937C13.1619 17.7673 12.7487 16.7638 12.7487 15.5833V7.08325C12.7487 5.9027 13.1619 4.89922 13.9883 4.07284C14.8147 3.24645 15.8181 2.83325 16.9987 2.83325C18.1793 2.83325 19.1827 3.24645 20.0091 4.07284C20.8355 4.89922 21.2487 5.9027 21.2487 7.08325V15.5833C21.2487 16.7638 20.8355 17.7673 20.0091 18.5937C19.1827 19.4201 18.1793 19.8333 16.9987 19.8333ZM16.9987 29.7499C16.2163 29.7499 15.582 29.1157 15.582 28.3333V25.3937C13.1265 25.0631 11.0959 23.9652 9.49036 22.0999C8.19733 20.5977 7.42497 18.8964 7.17328 16.9961C7.07055 16.2204 7.71629 15.5833 8.4987 15.5833C9.2811 15.5833 9.89811 16.2233 10.0436 16.9921C10.3018 18.3563 10.9499 19.5574 11.9879 20.5954C13.3697 21.9771 15.0399 22.6675 16.9987 22.6666C18.9575 22.6656 20.6282 21.9748 22.0109 20.594C23.0494 19.5569 23.6973 18.3565 23.9548 16.9928C24.0999 16.2239 24.7168 15.5833 25.4994 15.5833C26.2814 15.5833 26.9268 16.2201 26.8242 16.9954C26.5726 18.896 25.8002 20.5975 24.507 22.0999C22.9015 23.9652 20.8709 25.0631 18.4154 25.3937V28.3333C18.4154 29.1157 17.7811 29.7499 16.9987 29.7499Z" fill="white" shape-rendering="crispEdges"/>
<path d="M25.499 15.0833C26.5355 15.0833 27.4684 15.9407 27.3203 17.0608C27.0555 19.0612 26.2401 20.8526 24.8857 22.426C23.2952 24.2739 21.2988 25.4079 18.915 25.8215V28.3333C18.915 29.3917 18.0574 30.2501 16.999 30.2502C15.9405 30.2502 15.082 29.3918 15.082 28.3333V25.8215C12.6984 25.4078 10.7018 24.2738 9.11133 22.426C7.75723 20.8528 6.94264 19.0618 6.67773 17.0618C6.52931 15.9411 7.46209 15.0833 8.49902 15.0833C9.57679 15.0834 10.356 15.953 10.5352 16.8987C10.7736 18.1583 11.3706 19.2702 12.3418 20.2415C13.6293 21.529 15.1718 22.167 16.998 22.1663C18.8246 22.1654 20.3686 21.5272 21.6572 20.2405C22.6288 19.2702 23.2262 18.1586 23.4639 16.8997C23.6426 15.9539 24.4209 15.0834 25.499 15.0833ZM16.999 2.33325C18.3104 2.33333 19.4412 2.79806 20.3623 3.71899C21.2835 4.64022 21.749 5.7716 21.749 7.08325V15.5833C21.749 16.8949 21.2835 18.0263 20.3623 18.9475C19.4412 19.8684 18.3104 20.3332 16.999 20.3333C15.6875 20.3333 14.556 19.8686 13.6348 18.9475C12.7135 18.0263 12.249 16.8949 12.249 15.5833V7.08325C12.249 5.7716 12.7135 4.64022 13.6348 3.71899C14.556 2.79788 15.6875 2.33325 16.999 2.33325Z" stroke="black" stroke-opacity="0.3" shape-rendering="crispEdges"/>
</g>
<circle cx="28" cy="3" r="3" fill="#FF0000"/>
</g>
<defs>
<filter id="filter0_d_1703_269" x="2.16016" y="-2.16675" width="29.6758" height="36.9167" filterUnits="userSpaceOnUse" color-interpolation-filters="sRGB">
<feFlood flood-opacity="0" result="BackgroundImageFix"/>
<feColorMatrix in="SourceAlpha" type="matrix" values="0 0 0 0 0 0 0 0 0 0 0 0 0 0 0 0 0 0 127 0" result="hardAlpha"/>
<feOffset/>
<feGaussianBlur stdDeviation="2"/>
<feComposite in2="hardAlpha" operator="out"/>
<feColorMatrix type="matrix" values="0 0 0 0 0 0 0 0 0 0 0 0 0 0 0 0 0 0 0.25 0"/>
<feBlend mode="normal" in2="BackgroundImageFix" result="effect1_dropShadow_1703_269"/>
<feBlend mode="normal" in="SourceGraphic" in2="effect1_dropShadow_1703_269" result="shape"/>
</filter>
<clipPath id="clip0_1703_269">
<rect width="34" height="34" fill="white"/>
</clipPath>
</defs>
</svg>
