<svg width="37" height="37" viewBox="0 0 37 37" fill="none" xmlns="http://www.w3.org/2000/svg">
<g opacity="0.9">
<path d="M18.4457 0C8.26286 0 0 8.06546 0 18.0095C0 27.9535 8.26286 36.019 18.4457 36.019C28.6286 36.019 36.9029 27.9535 36.9029 18.0095C36.9029 8.06546 28.6286 0 18.4457 0ZM18.4457 32.8468C13.0857 32.8468 8.38857 30.1245 5.68 26.0412L15.3371 22.1716C16.1714 22.7565 17.2 23.1165 18.3086 23.1165C19.4171 23.1165 20.4 22.779 21.2229 22.2166L31.1314 26.1874C28.4114 30.2033 23.7486 32.858 18.4457 32.858V32.8468ZM33.2571 21.3616L23.3371 17.3908C22.96 14.9948 20.8686 13.1612 18.3086 13.1612C15.7486 13.1612 13.6914 14.9723 13.2914 17.3345L3.6 21.2154C3.37143 20.1805 3.23429 19.1119 3.23429 18.0095C3.23429 9.80904 10.0457 3.16094 18.4343 3.16094C26.8229 3.16094 33.6457 9.80904 33.6457 18.0095C33.6457 19.1681 33.4857 20.2818 33.2457 21.3729L33.2571 21.3616Z" fill="#47AFFF" style="mix-blend-mode:hard-light"/>
</g>
</svg>
