<svg width="68" height="87" viewBox="0 0 68 87" fill="none" xmlns="http://www.w3.org/2000/svg">
<path opacity="0.2" d="M37.7409 0C45.2399 1.96742e-08 48.99 0.000424743 51.8545 1.46424C54.3742 2.75205 56.423 4.8072 57.7069 7.33464C59.1665 10.208 59.1667 11.6791 59.1667 19.2018V24.6908C59.1667 25.2431 59.6144 25.6908 60.1667 25.6908H64.6511C66.4997 25.6911 67.9996 27.1946 68 29.0488C68 30.9034 66.4999 32.4078 64.6511 32.408L60.1671 32.4062C59.6147 32.4059 59.1667 32.8537 59.1667 33.4062V65.5084C59.1667 73.0308 59.1664 76.7921 57.7069 79.6654C56.423 82.1928 54.3742 84.2479 51.8545 85.5358C48.99 86.9996 45.24 87 37.7409 87H30.374C22.8749 87 19.1248 86.9996 16.2604 85.5358C13.7407 84.2479 11.6918 82.1928 10.4079 79.6654C8.9539 76.8028 8.94818 65.5922 8.94816 65.5084V33.3644C8.94816 32.8121 8.50045 32.3644 7.94816 32.3644H3.38009C1.51345 32.3643 0.000220688 30.8462 0 28.9739C0 27.1014 1.51331 25.5835 3.38009 25.5834H7.94816C8.50045 25.5834 8.94816 25.1357 8.94816 24.5834V19.2018C8.94816 19.2018 8.94845 10.208 10.4079 7.33464C11.6918 4.80727 13.7407 2.75207 16.2604 1.46424C19.1248 0.000375748 22.8749 1.63544e-08 30.374 0H37.7409Z" fill="#D9D9D9"/>
<rect opacity="0.2" x="13" y="16" width="42" height="26" rx="9" fill="black"/>
<rect opacity="0.2" x="13" y="48" width="42" height="26" rx="9" fill="black"/>
<circle cx="25.0508" cy="25.5" r="3.5" fill="#D9D9D9"/>
<path d="M25.0039 30.6191C27.5702 30.6191 29.806 32.0324 30.9772 34.1226C31.0674 34.2836 30.9473 34.4766 30.7627 34.4766H19.2451C19.0605 34.4766 18.9404 34.2836 19.0306 34.1226C20.2017 32.0324 22.4377 30.6192 25.0039 30.6191Z" fill="#D9D9D9"/>
</svg>
