<svg width="68" height="87" viewBox="0 0 68 87" fill="none" xmlns="http://www.w3.org/2000/svg">
<path opacity="0.2" d="M37.7409 0C45.2399 1.96742e-08 48.99 0.000424743 51.8545 1.46424C54.3742 2.75205 56.423 4.8072 57.7069 7.33464C59.1665 10.208 59.1667 11.6791 59.1667 19.2018V24.6908C59.1667 25.2431 59.6144 25.6908 60.1667 25.6908H64.6511C66.4997 25.6911 67.9996 27.1946 68 29.0488C68 30.9034 66.4999 32.4078 64.6511 32.408L60.1671 32.4062C59.6147 32.4059 59.1667 32.8537 59.1667 33.4062V65.5084C59.1667 73.0308 59.1664 76.7921 57.7069 79.6654C56.423 82.1928 54.3742 84.2479 51.8545 85.5358C48.99 86.9996 45.24 87 37.7409 87H30.374C22.8749 87 19.1248 86.9996 16.2604 85.5358C13.7407 84.2479 11.6918 82.1928 10.4079 79.6654C8.9539 76.8028 8.94818 65.5922 8.94816 65.5084V33.3644C8.94816 32.8121 8.50045 32.3644 7.94816 32.3644H3.38009C1.51345 32.3643 0.000220688 30.8462 0 28.9739C0 27.1014 1.51331 25.5835 3.38009 25.5834H7.94816C8.50045 25.5834 8.94816 25.1357 8.94816 24.5834V19.2018C8.94816 19.2018 8.94845 10.208 10.4079 7.33464C11.6918 4.80727 13.7407 2.75207 16.2604 1.46424C19.1248 0.000375748 22.8749 1.63544e-08 30.374 0H37.7409Z" fill="#D9D9D9"/>
<path d="M19.9976 56.783H22.4286L25.2336 65H23.4076L22.6926 62.723H19.7336L19.0186 65H17.1926L19.9976 56.783ZM22.2746 61.392L21.2186 58.015L20.1516 61.392H22.2746ZM29.8613 65.154C29.1499 65.154 28.5339 65.0183 28.0133 64.747C27.4999 64.4683 27.1076 64.0907 26.8363 63.614C26.5649 63.13 26.4293 62.5837 26.4293 61.975V56.783H28.1343V62.03C28.1343 62.514 28.2846 62.9137 28.5853 63.229C28.8859 63.5443 29.3113 63.702 29.8613 63.702C30.4113 63.702 30.8329 63.548 31.1263 63.24C31.4269 62.9247 31.5773 62.5213 31.5773 62.03V56.783H33.2933V61.975C33.2933 62.5837 33.1576 63.13 32.8863 63.614C32.6149 64.0907 32.2189 64.4683 31.6983 64.747C31.1849 65.0183 30.5726 65.154 29.8613 65.154ZM37.2045 58.158H34.5975V56.783H41.5165V58.158H38.9205V65H37.2045V58.158ZM46.2073 65.154C45.4593 65.154 44.7553 64.9817 44.0953 64.637C43.4427 64.285 42.9147 63.7863 42.5113 63.141C42.1153 62.4957 41.9173 61.7513 41.9173 60.908V60.875C41.9173 60.0317 42.1153 59.2873 42.5113 58.642C42.9147 57.9967 43.4427 57.5017 44.0953 57.157C44.7553 56.805 45.4593 56.629 46.2073 56.629C46.9627 56.629 47.6667 56.805 48.3193 57.157C48.9793 57.5017 49.5073 57.9967 49.9033 58.642C50.3067 59.2873 50.5083 60.0317 50.5083 60.875V60.908C50.5083 61.7513 50.3067 62.4957 49.9033 63.141C49.5073 63.7863 48.9793 64.285 48.3193 64.637C47.6667 64.9817 46.9627 65.154 46.2073 65.154ZM43.6443 60.897C43.6443 61.469 43.7653 61.9677 44.0073 62.393C44.2493 62.811 44.5647 63.13 44.9533 63.35C45.3493 63.57 45.7673 63.68 46.2073 63.68C46.6547 63.68 47.0763 63.57 47.4723 63.35C47.8683 63.13 48.1873 62.811 48.4293 62.393C48.6713 61.9677 48.7923 61.469 48.7923 60.897V60.875C48.7923 60.303 48.6713 59.808 48.4293 59.39C48.1873 58.972 47.8683 58.653 47.4723 58.433C47.0763 58.213 46.6547 58.103 46.2073 58.103C45.76 58.103 45.342 58.213 44.9533 58.433C44.5647 58.653 44.2493 58.972 44.0073 59.39C43.7653 59.808 43.6443 60.303 43.6443 60.875V60.897Z" fill="#3A96EF"/>
<g opacity="0.9">
<path d="M33.9957 20C26.2694 20 20 26.2698 20 34C20 41.7302 26.2694 48 33.9957 48C41.7219 48 48 41.7302 48 34C48 26.2698 41.7219 20 33.9957 20ZM33.9957 45.534C29.9288 45.534 26.3648 43.4179 24.3097 40.2436L31.637 37.2355C32.2701 37.6902 33.0505 37.97 33.8916 37.97C34.7327 37.97 35.4785 37.7077 36.1028 37.2705L43.6209 40.3573C41.5571 43.4791 38.0192 45.5428 33.9957 45.5428V45.534ZM45.2338 36.6059L37.707 33.5191C37.4209 31.6565 35.834 30.2311 33.8916 30.2311C31.9492 30.2311 30.3884 31.639 30.0849 33.4753L22.7315 36.4922C22.5581 35.6877 22.454 34.857 22.454 34C22.454 27.6252 27.6222 22.4572 33.987 22.4572C40.3518 22.4572 45.5286 27.6252 45.5286 34C45.5286 34.9007 45.4072 35.7664 45.2251 36.6146L45.2338 36.6059Z" fill="#47AFFF" style="mix-blend-mode:hard-light"/>
</g>
</svg>
